<?xml version="1.0" standalone="no"?>
<!DOCTYPE svg PUBLIC "-//W3C//DTD SVG 20010904//EN"
 "http://www.w3.org/TR/2001/REC-SVG-20010904/DTD/svg10.dtd">
<svg version="1.0" xmlns="http://www.w3.org/2000/svg"
 width="260.000000pt" height="260.000000pt" viewBox="0 0 260.000000 260.000000"
 preserveAspectRatio="xMidYMid meet">
<metadata>
Created by potrace 1.11, written by Peter Selinger 2001-2013
</metadata>
<g transform="translate(0.000000,260.000000) scale(0.100000,-0.100000)"
fill="#000000" stroke="none">
<path d="M1095 2474 c-571 -102 -985 -596 -985 -1174 0 -659 531 -1190 1190
-1190 659 0 1190 531 1190 1190 0 583 -417 1076 -994 1175 -109 18 -294 18
-401 -1z m750 -636 c24 -22 28 -40 67 -307 l42 -283 -27 -24 c-32 -27 -107
-34 -126 -11 -16 21 -124 555 -117 583 8 31 61 64 103 64 19 0 42 -9 58 -22z
m-297 -85 c80 -50 28 -156 -77 -156 -37 0 -49 5 -73 31 -35 40 -35 62 -2 101
41 49 98 58 152 24z m-316 -21 c12 -12 34 -126 82 -414 36 -219 66 -410 66
-426 0 -35 -22 -57 -74 -71 -45 -12 -89 -5 -109 18 -9 9 -26 87 -42 181 -14
91 -28 170 -30 176 -2 8 -40 5 -124 -9 -96 -16 -121 -23 -121 -36 0 -9 12 -89
26 -178 15 -89 24 -168 21 -177 -11 -27 -69 -56 -113 -56 -80 0 -76 -13 -153
455 -78 467 -78 451 -5 475 39 13 110 8 127 -9 5 -5 21 -74 34 -153 13 -79 25
-152 28 -164 l5 -21 122 20 c68 11 124 21 124 21 1 1 -11 75 -26 165 l-27 163
21 24 c40 44 132 53 168 16z m379 -272 c23 -27 103 -514 88 -541 -23 -45 -128
-64 -168 -31 -19 15 -28 53 -66 272 -43 249 -43 256 -26 280 35 48 137 60 172
20z m369 -375 c36 -36 35 -104 -1 -141 -52 -51 -146 -29 -169 41 -33 100 95
175 170 100z"/>
</g>
</svg>
